<?xml version="1.0" encoding="utf-8"?>
<!-- Generator: Adobe Illustrator 27.9.0, SVG Export Plug-In . SVG Version: 6.00 Build 0)  -->
<svg version="1.1" id="Layer_1" xmlns="http://www.w3.org/2000/svg" xmlns:xlink="http://www.w3.org/1999/xlink" x="0px" y="0px"
	 viewBox="0 0 40 40" style="enable-background:new 0 0 40 40;" xml:space="preserve">
<g>
	<path d="M37.5,14.7c0,11.9-8.3,20.7-19.7,20.7c-9.4,0-15.3-5.9-15.3-15.3c0-5.7,2.2-11.4,5.9-15c3.4-3.4,8-5.1,13.8-5.1
		C31.8,0,37.5,5.5,37.5,14.7z M8.2,21.6C8.2,29,11.5,33,17.6,33c4.3,0,7.9-2,10.3-5.7c2.5-3.6,3.9-8.7,3.9-13.8
		c0-7.1-3.7-11.4-9.8-11.4C13.8,2.2,8.2,10.1,8.2,21.6z"/>
	<path d="M23.1,34.3c0,0,8.5,0.4,11.2,5.8c0,0,0.2-6.7-2.3-10.5L23.1,34.3z"/>
</g>
</svg>
