<?xml version="1.0" encoding="utf-8"?>
<!-- Generator: Adobe Illustrator 27.9.0, SVG Export Plug-In . SVG Version: 6.00 Build 0)  -->
<svg version="1.1" id="Layer_1" xmlns="http://www.w3.org/2000/svg" xmlns:xlink="http://www.w3.org/1999/xlink" x="0px" y="0px"
	 viewBox="0 0 16 16" style="enable-background:new 0 0 16 16;" xml:space="preserve">
<style type="text/css">
	.st0{fill:#333333;}
</style>
<g>
	<path class="st0" d="M15,5.9c0,4.8-3.3,8.3-7.9,8.3C3.4,14.1,1,11.8,1,8c0-2.3,0.9-4.5,2.4-6c1.4-1.4,3.2-2,5.5-2
		C12.7,0,15,2.2,15,5.9z M3.3,8.6c0,3,1.3,4.6,3.8,4.6c1.7,0,3.1-0.8,4.1-2.3c1-1.5,1.5-3.5,1.5-5.5c0-2.8-1.5-4.5-3.9-4.5
		C5.5,0.9,3.3,4,3.3,8.6z"/>
	<path class="st0" d="M9.2,13.7c0,0,3.4,0.2,4.5,2.3c0,0,0.1-2.7-0.9-4.2L9.2,13.7z"/>
</g>
</svg>
